<?xml version="1.0" standalone="no"?><!DOCTYPE svg PUBLIC "-//W3C//DTD SVG 1.1//EN" "http://www.w3.org/Graphics/SVG/1.1/DTD/svg11.dtd"><svg t="1676092452626" class="icon" viewBox="0 0 1024 1024" version="1.1" xmlns="http://www.w3.org/2000/svg" p-id="2817" xmlns:xlink="http://www.w3.org/1999/xlink" width="200" height="200"><path d="M277.568 842.709333A403.477333 403.477333 0 0 0 512 917.333333c87.36 0 168.256-27.626667 234.432-74.624C740.885333 718.037333 638.058667 618.666667 512 618.666667c-126.037333 0-228.864 99.370667-234.432 224.042666z m-39.637333-32.064c15.36-99.413333 83.498667-181.376 174.890666-216.384A213.312 213.312 0 0 1 298.666667 405.333333c0-117.824 95.509333-213.333333 213.333333-213.333333s213.333333 95.509333 213.333333 213.333333a213.312 213.312 0 0 1-114.154666 188.928c91.392 34.986667 159.530667 116.970667 174.890666 216.384A404.266667 404.266667 0 0 0 917.333333 512c0-223.850667-181.482667-405.333333-405.333333-405.333333S106.666667 288.149333 106.666667 512a404.266667 404.266667 0 0 0 131.264 298.645333zM512 960C264.576 960 64 759.424 64 512S264.576 64 512 64s448 200.576 448 448-200.576 448-448 448z m0-384a170.666667 170.666667 0 1 0 0-341.333333 170.666667 170.666667 0 0 0 0 341.333333z" fill="#ffffff" p-id="2818"></path></svg>