<?xml version="1.0" standalone="no"?><!DOCTYPE svg PUBLIC "-//W3C//DTD SVG 1.1//EN" "http://www.w3.org/Graphics/SVG/1.1/DTD/svg11.dtd"><svg t="1676197709951" class="icon" viewBox="0 0 1024 1024" version="1.1" xmlns="http://www.w3.org/2000/svg" p-id="3507" xmlns:xlink="http://www.w3.org/1999/xlink" width="200" height="200"><path d="M878.3 98.2H145.7c-44.7 0-81 36.3-81 81V714c0 44.7 36.3 81 81 81h192.8l149.2 121.8c7.4 6 16.3 9 25.3 9 8.9 0 17.9-3 25.2-9l150-121.8h190c44.7 0 81-36.3 81-81V179.2c0.1-44.7-36.3-81-80.9-81z m1 615.8c0 0.5-0.5 1-1 1H674.1c-9.2 0-18.1 3.2-25.2 9L513.1 834.2 378.1 724c-7.1-5.8-16.1-9-25.3-9H145.7c-0.5 0-1-0.5-1-1V179.2c0-0.5 0.5-1 1-1h732.5c0.5 0 1 0.5 1 1V714z" fill="#333333" p-id="3508"></path><path d="M322.1 447.6m-50 0a50 50 0 1 0 100 0 50 50 0 1 0-100 0Z" fill="#333333" p-id="3509"></path><path d="M513.1 447.6m-50 0a50 50 0 1 0 100 0 50 50 0 1 0-100 0Z" fill="#333333" p-id="3510"></path><path d="M704.3 447.6m-50 0a50 50 0 1 0 100 0 50 50 0 1 0-100 0Z" fill="#333333" p-id="3511"></path></svg>