<?xml version="1.0" standalone="no"?><!DOCTYPE svg PUBLIC "-//W3C//DTD SVG 1.1//EN" "http://www.w3.org/Graphics/SVG/1.1/DTD/svg11.dtd"><svg t="1676281366811" class="icon" viewBox="0 0 1024 1024" version="1.1" xmlns="http://www.w3.org/2000/svg" p-id="4689" xmlns:xlink="http://www.w3.org/1999/xlink" width="200" height="200"><path d="M699.733333 597.333333v34.133334a34.133333 34.133333 0 0 1-34.133333 34.133333H358.4a34.133333 34.133333 0 0 1-34.133333-34.133333v-34.133334h375.466666z" fill="#00B386" p-id="4690"></path><path d="M614.4 85.333333a34.133333 34.133333 0 0 1 2.56 68.164267L614.4 153.6H204.8v716.8h614.4V363.264a34.133333 34.133333 0 0 1 68.181333-2.56l0.085334 2.56V870.4a68.266667 68.266667 0 0 1-64.853334 68.181333L819.2 938.666667H204.8a68.266667 68.266667 0 0 1-68.181333-64.853334L136.533333 870.4V153.6a68.266667 68.266667 0 0 1 64.853334-68.181333L204.8 85.333333h409.6z" fill="#444444" p-id="4691"></path><path d="M821.077333 111.616a34.133333 34.133333 0 0 1 49.117867 47.325867l-2.048 2.116266-349.696 332.629334a34.133333 34.133333 0 0 1-49.083733-47.325867l2.048-2.133333L821.077333 111.616z" fill="#444444" p-id="4692"></path></svg>