<?xml version="1.0" standalone="no"?><!DOCTYPE svg PUBLIC "-//W3C//DTD SVG 1.1//EN" "http://www.w3.org/Graphics/SVG/1.1/DTD/svg11.dtd"><svg t="1677203208511" class="icon" viewBox="0 0 1024 1024" version="1.1" xmlns="http://www.w3.org/2000/svg" p-id="5125" xmlns:xlink="http://www.w3.org/1999/xlink" width="200" height="200"><path d="M512 68l-28.992 66.016-104 232.96-254.016 27.04-72 8 54.016 48 188.992 170.976-52.992 250.016-15.008 69.984 63.008-36 220.992-128 220.992 128 63.008 36-15.008-69.984-52.992-250.016 188.992-170.976 54.016-48-72-8-254.016-27.008-104-232.992z m0 156.992l82.016 185.024 8 16.96 17.984 2.016 200.992 20.992-149.984 135.04-14.016 12.96 4 18.016 42.016 196.992-175.008-100-16-9.984-16 9.984-175.008 100 42.016-196.992 4-18.016-14.016-12.992-149.984-134.976 200.992-21.024 18.016-1.984 8-16.992z" p-id="5126"></path></svg>